<svg xmlns:rdf="http://www.w3.org/1999/02/22-rdf-syntax-ns#" xmlns="http://www.w3.org/2000/svg" xmlns:cc="http://creativecommons.org/ns#" xmlns:xlink="http://www.w3.org/1999/xlink" xmlns:dc="http://purl.org/dc/elements/1.1/" id="OpenCOR logo" xml:space="preserve" height="704.92" width="828.12" version="1.1">
    <metadata id="metadata">
        <rdf:RDF>
            <cc:Work rdf:about="">
                <dc:format>image/svg+xml</dc:format>
                <dc:type rdf:resource="http://purl.org/dc/dcmitype/StillImage" />
                <dc:title />
            </cc:Work>
        </rdf:RDF>
    </metadata>
    <path id="manPath" d="m479.01,689.07c-6.711-8.5316-3.885-23.925,7.3448-40.009,6.5227-9.3421,8.5394-15.013,8.5902-24.157,0.0426-7.6638,3.5823-13.54,13.454-22.332,12.603-11.225,19.377-25.66,27.763-59.158,1.4627-5.842,3.7519-13.996,5.0871-18.12,1.3352-4.1238,3.6186-11.714,5.074-16.868,3.4-12.038,10.2-26.342,15.274-32.131,2.1902-2.4986,9.1468-8.3594,15.459-13.024,7.5348-5.5681,12.551-10.323,14.603-13.842,4.8433-8.3049,12.499-25.931,11.637-26.793-1.5593-1.5593-8.3533,2.4805-20.353,12.102-7.9026,6.3364-14.943,10.848-19.713,12.631-5.211,1.9488-9.1123,4.5679-13.104,8.7965-6.1064,6.47-9.695,7.4939-13.096,3.7364-3.1873-3.522-2.5026-8.2907,2.8215-19.652,6.2882-13.419,9.5502-17.551,18.687-23.674,8.5052-5.6997,10.366-8.3553,14.623-20.874,5.836-17.159,15.768-22.418,29.015-15.365,3.2277,1.7182,6.9977,3.1298,8.3778,3.1367,4.7076,0.0237,18.441-5.5735,20.177-8.2237,0.95053-1.4507,2.236-8.0044,2.8565-14.563,0.75928-8.0254,2.2164-14.528,4.4549-19.88,8.5121-20.354,8.5304-20.446,6.8585-34.822-1.2954-11.138-1.2334-14.789,0.41019-24.158,2.9914-17.05,8.1857-26.597,23.763-43.675,10.15-11.127,13.401-15.549,14.076-19.148,0.93499-4.9839-0.15067-31.713-1.4793-36.422-1.1495-4.0738-2.3541-3.5107-6.0757,2.84-4.3497,7.4223-17.489,21.394-23.793,25.3-2.7492,1.7039-7.9249,5.3259-11.502,8.0491-5.5424,4.2198-6.8044,5.9872-8.5417,11.963-5.1496,17.714-13.988,29.16-31.571,40.883-7.3786,4.9196-12.593,9.4637-15.164,13.215-4.5938,6.7023-11.219,22.862-11.281,27.514-0.0519,3.908,3.9652,15.954,6.7245,20.165,2.0534,3.134,1.5825,4.7101-1.4071,4.7101-0.94651,0-5.0995-2.8117-9.2288-6.2482-7.9932-6.652-11.313-7.5084-17.236-4.4457-5.2843,2.7326-16.431,15.397-22.408,25.459-2.9335,4.9379-6.1521,8.978-7.1524,8.978-2.283,0-2.3697,0.90262,1.2546-13.047,3.984-15.333,7.1237-21.29,18.763-35.593,5.2701-6.4765,10.89-14.357,12.489-17.512,4.192-8.2727,15.494-35.391,18.797-45.104,3.4554-10.159,7.8016-17.201,16.173-26.204,24.065-25.879,32.929-37.075,36.9-46.615,5.6516-13.576,15.262-28.965,26.508-42.45,5.2891-6.3415,12.037-14.569,14.996-18.283,12.466-15.65,19.098-17.962,48.492-16.903,21.374,0.77084,24.635,0.03699,26.766-6.022,1.0088-2.8684,0.57569-4.2373-2.8494-9.0065-8.1518-11.351-12.635-25.103-12.648-38.792-0.014-15.598,4.7185-25.657,14.876-31.622,5.1095-3.0004,7.224-3.4079,19.77-3.8105,0,0,8.9592,0.2885,12.471,1.2847,3.5116,0.99628,4.8222,1.4298,6.2553,2.8628,1.4331,1.4331,4.5874,6.4189,6.0012,11.378,1.162,4.0759,3.7378,10.291,5.7238,13.811,3.2609,5.7799,3.6109,7.5222,3.6109,17.975,0,14.781-1.6976,20.277-8.3457,27.02-5.7509,5.8335-7.0626,9.0047-6.4296,15.545,0.35106,3.6274,1.9723,5.3925,12.276,13.366,17.434,13.49,20.515,20.013,16.873,35.712-5.7979,24.984-16.688,44.336-36.158,64.255-10.351,10.59-12.356,13.509-23.611,34.365-6.7646,12.535-12.891,24.03-13.616,25.544-1.1628,2.4309-0.34785,3.7969,7.0001,11.733,20.255,21.879,41.128,55.237,43.922,70.201,0.48358,2.5895,0.47675,8.4665-0.0151,13.06-0.7584,7.0819-1.4928,8.9484-4.8293,12.275-6.8582,6.8369-25.179,12.375-64.199,19.406l-22.775,4.1038-8.9974,10.481c-4.9485,5.7644-11.761,12.965-15.139,16.003-3.3778,3.0369-8.3862,8.9948-11.13,13.24-5.906,9.1378-15.649,19.589-27.342,29.329-6.8075,5.6706-8.7247,8.0692-9.7711,12.225-1.6299,6.4728-10.835,21.869-21.372,35.746-10.031,13.21-33,41.835-37.601,46.861-5.7982,6.3329-15.863,24.69-23.796,43.401-4.1574,9.8069-10.563,23.489-14.235,30.405-3.6714,6.916-8.6659,17.511-11.099,23.544-8.7704,21.75-12.282,25.156-27.398,26.567-7.5393,0.70403-8.0689,0.57243-10.589-2.6314z" fill="#366092" />
    <path id="greyDnaPath" fill="#a5a5a5" d="m564.03,260.47c-118.36,4.4375-430.18,44.788-529.25,184.25,1.3074-1.2904,2.6652-2.489,4.0312-3.5938,101.24-121.44,390.47-165.64,521.57-171.69,1.2255-2.9859,2.4343-5.9818,3.6562-8.9688zm-496.97,170.25c-15.686-0.16647-34.424,10.126-45.031,33.312-7.9791,17.44-12.616,41.654,0.34375,50.031,20.62,13.329,64.934-13.655,91.781-14.844,35.12-1.5562,5.2438,121.23,52.375,121.25-30.13-7.875-8.8325-114.3-42.062-127.56-33.301-13.294-80.6,30.822-100.78,17.375-14.828-9.88,1.292-40.04,10.351-51.78,12.401-16.08,43.904-35.53,58.813-9.53-3.236-11.64-13.581-18.12-25.782-18.25zm99.469,189.75c12.651,3.2016,23.09-9.6345,32.25-27.969,0.5587-1.1183,1.1069-2.2806,1.6562-3.4375-0.55254,1.1642-1.0942,2.3123-1.6562,3.4375-0.40776,0.81626-0.80575,1.644-1.2188,2.4375v23.594c0.14588,0.29907,0.28919,0.58447,0.4375,0.875,0.20385,0.4004,0.41686,0.80419,0.625,1.1875,0.13732,0.25268,0.26709,0.50463,0.40625,0.75,0.22094,0.38817,0.43042,0.75512,0.65625,1.125,0.12634,0.20752,0.27809,0.42237,0.40625,0.625,0.24537,0.38574,0.46728,0.76001,0.71875,1.125,0.12329,0.17823,0.24987,0.35791,0.375,0.53125,0.26611,0.36865,0.53906,0.71826,0.8125,1.0625,0.10864,0.13671,0.23388,0.2732,0.34375,0.40625,0.29174,0.35157,0.57592,0.70899,0.875,1.0312,0.10681,0.11597,0.20512,0.20138,0.3125,0.3125,0.31371,0.32349,0.64587,0.64697,0.96875,0.9375,0.0922,0.0842,0.18725,0.1682,0.28125,0.25,0.34728,0.29906,0.70362,0.58253,1.0625,0.84375,0.0726,0.0537,0.14545,0.10375,0.21875,0.15625v-53.406c2.4779-5.9788,4.8612-12.15,7.1875-18.312v71.312c0.39878-0.38384,0.79528-0.77942,1.1875-1.2188,0.31206-0.34954,0.62935-0.74156,0.9375-1.125-0.31051,0.38741-0.62299,0.77227-0.9375,1.125-0.39001,0.43739-0.79096,0.8367-1.1875,1.2188-0.99915,0.96263-2.017,1.7574-3.0625,2.3438,36.845,7.2625,43.186-120.39,81.969-135.88-16.232-3.495-28.053,10.806-37.688,31.344v-13c-2.4934-4.0796-5.4595-7.1055-9.0312-8.8438v44.156c-2.6768,7.4475-5.199,15.1-7.6562,22.656v-68.062c-0.33468,0.35491-0.69741,0.72315-1.0312,1.125,0.46534-0.56138,0.93915-1.0933,1.4062-1.5625-38.951,1.5759-42.944,118.04-71.625,116.84zm313.25-167.09c-0.24047,0.0623-0.48316,0.1706-0.71875,0.25-45.311,15.475-53.044,212.46-94.594,224.69-0.0592,0.017-0.1282,0.0141-0.1875,0.0312,0.0611,0.0256,0.1265,0.0693,0.1875,0.0937,60.972,24.462,73.98-191.37,95-224.56,0.0977-0.15381,0.2136-0.35229,0.3125-0.5zm-77.625,12.344c-46.454-0.63392-43.177,197.29-85.062,202.84,62.632,3.4058,60.715-180.97,86.156-202.78-0.37199-0.0298-0.72797-0.0575-1.0938-0.0625zm-172.56,51.375c-0.28205,0.58006-0.56136,1.1785-0.84375,1.7812v80.312c-2.1198,5.91-4.274,11.355-6.4688,16.062v-81.031c2.4735-6.317,4.8936-12.148,7.3125-17.125zm-12.04,106.9c-0.53442,0.82207-1.0794,1.5918-1.625,2.3125,0.54784-0.72162,1.0883-1.489,1.625-2.3125z" />
    <path id="redDnaPath" fill="#953734" d="m138.79,506.86c36.515-4.4398,26.91,125.84,63.42,127.48,5.4828,0.24536,7.9876-2.638,7.9876-2.633-32.082-8.2044-23.244-153.11-72.789-127.89,0,0,1.3806,3.0481,1.3806,3.0481zm417.42,84.965c19.811,54.112,44.398,101.74,87.802,102.04-27.162-15.188-47.554-72.282-68.936-129.44-7.0508,9.2725-13.332,16.878-18.866,27.395zm-29.51,62.58c13.742,19.669,33.092,37.915,52.188,38.835-23.42,5.5005-45.488-3.1519-61.65-16.191,2.9834-5.9131,6.0254-16.956,9.4629-22.644zm-46.83-201.05c30.745-8.966,49.02,57.96,54.97,75.399,3.523-13.472,7.7808-26.171,11.266-34.974-9.1273-18.746-42.358-75.998-66.293-40.438-0.0146,0.022-0.009,0.0135-0.0244,0.0354,0.0233-0.006,0.0745-0.0208,0.0817-0.0233zm-389.52,18.338c-9.1288-30.038-53.605-21.662-73.904,25.688-8.59,20.025-3.4045,49.875,15.005,51.85,18.278,1.9544,63.08-25.884,94.562-40.154,0,0,0.99305,2.2472,0.99305,2.2472-40.202,31.22-156.88,86.395-95.096-21.715,11.522-20.162,41.856-50.915,58.439-17.915zm-49.802-31.95c103.36-114.51,411.66-147.7,512.75-151.59-3.8868,10.077-9.6631,14.556-12.739,19.656-78.036,1.9201-373.36,30.325-489.71,125.94-3.5412,1.3806-7.2339,3.7512-10.294,5.9912zm336.58,122.49v110.18c2.2412,2.3816,4.6198,4.3909,7.1649,5.9375v-153.45c3.7902-19.628,7.4872-36.824,12.047-47.952v192.05c-3.9844,5.354-9.726,10.327-16.82,9.917-60.574-3.512-56.559-154.82-83.391-180.36-1.153-1.0962-2.4988-2.0996-3.971-2.7259,1.7738-1.0327,6.33-1.6223,9.0576-1.5661,35.605,0.72754,39.414,106.93,63.865,159.3v-41.606c4.7803-15.458,8.6304-32.665,12.047-49.729zm58.612-52.331v35.481c-4.0918,16.229-8.0176,33.029-12.047,49.021v-110.62c-2.7014-4.6972-5.4516-8.5852-8.2886-11.506v152.61c-3.739,12.433-7.6929,23.558-12.047,32.415v-191.51c0.003,0.001,0.006,0.001,0.009,0.001-0.004,0-0.009-0.001-0.0125-0.001-0.0226-0.004-0.0385-0.006-0.0623-0.01,0.0244-0.0244,0.0305-0.0305,0.0549-0.0561,3.4576-3.5938,7.4054-5.741,11.979-6.0828,34.866-2.6062,57.636,76.17,85.888,142.72-8.3985,6.2036-11.223,16.429-11.675,21.378-0.4419,4.8279,0.78979,11.624-2.0105,15.44-22.281-39.828-37.268-92.562-51.788-129.29zm-187.37-11.86c54.431-4.7498,25.025,147.31,69.59,170.54-66.292,2.1692-33.405-164.74-79.802-164.92,2.0905-2.1985,6.3916-5.2771,10.212-5.6104z" />
    <path id="opencorPath" fill="none" d="m27.782,611.49c103.7-139.25,419-177.25,535.91-181.85" />
    <text id="opencorText" stroke-linejoin="miter" style="writing-mode:lr-tb;letter-spacing:0px;text-anchor:end;word-spacing:0px;text-align:end;" stroke-width="2.5" transform="translate(5.731,-211.10242)" font-family="Brush Script MT" xml:space="preserve" stroke-linecap="butt" font-size="160px" line-height="125%" stroke="#7f7f7f" font-stretch="normal" font-variant="normal" font-style="oblique" stroke-dasharray="none" font-weight="normal" fill="#a5a5a5">
        <textPath id="opencorTextPath" style="writing-mode:lr-tb;text-anchor:end;text-align:end;" xlink:href="#opencorPath" startOffset="100%" line-height="125%">Open<tspan id="tspan140" stroke-linejoin="miter" style="writing-mode:lr-tb;text-anchor:end;text-align:end;" stroke-width="2.5" font-family="Brush Script MT" stroke-linecap="butt" font-size="160px" line-height="125%" stroke="#244061" font-stretch="normal" font-variant="normal" font-style="oblique" stroke-dasharray="none" font-weight="normal" fill="#366092">C</tspan>O<tspan id="tspan142" stroke-linejoin="miter" style="writing-mode:lr-tb;text-anchor:end;text-align:end;" stroke-width="2.5" font-family="Brush Script MT" stroke-linecap="butt" font-size="160px" line-height="125%" stroke="#632423" font-stretch="normal" font-variant="normal" font-style="oblique" stroke-dasharray="none" font-weight="normal" fill="#953734">R</tspan></textPath>
    </text>
</svg>
