<?xml version="1.0" encoding="UTF-8"?>
<svg xmlns="http://www.w3.org/2000/svg" xmlns:xlink="http://www.w3.org/1999/xlink" version="1.2">
    <path style="fill-rule:nonzero;fill:rgb(239,239,239);fill-opacity:1;stroke-width:1.5;stroke-linecap:butt;stroke-linejoin:round;stroke:rgb(69,69,69);stroke-opacity:1;stroke-miterlimit:10;" d="M 121.53125 69.287813 C 120.269531 69.287813 118.300781 68.072969 115.640625 65.647188 C 112.980469 63.2175 110.261719 60.385469 107.480469 57.143281 C 109.089844 57.385469 110.328125 57.463594 111.199219 57.37375 C 112.070312 57.287813 113.019531 56.889375 114.039062 56.174531 C 116.699219 59.135469 118.738281 61.682344 120.160156 63.819063 C 121.578125 65.955781 122.289062 67.526094 122.289062 68.526094 C 122.289062 69.033906 122.039062 69.287813 121.53125 69.287813 Z M 154.800781 74.584688 C 154.429688 74.584688 153.671875 74.260469 152.539062 73.615938 C 151.398438 72.971406 150.230469 72.112031 149.03125 71.037813 C 147.820312 69.959688 146.738281 68.697969 145.78125 67.252656 C 144.828125 65.803438 144.210938 64.600313 143.941406 63.647188 C 145.710938 64.635469 147.539062 65.897188 149.429688 67.428438 C 151.308594 68.959688 152.679688 70.393281 153.539062 71.725313 C 154.390625 73.057344 154.820312 73.971406 154.820312 74.4675 C 154.820312 74.545625 154.808594 74.584688 154.800781 74.584688 Z M 81.730469 90.381563 C 79.828125 90.381563 77.4375 89.588594 74.554688 88.002656 C 71.671875 86.416719 68.699219 84.041719 65.628906 80.881563 C 65.039062 80.006563 62.722656 77.31125 58.683594 72.795625 C 58.957031 74.545625 59.441406 76.28 60.136719 77.99875 C 59.652344 77.170625 59.125 76.283906 58.558594 75.346406 C 56.394531 71.764375 54.65625 68.268281 53.339844 64.862031 C 52.023438 61.455781 51.367188 58.885469 51.367188 57.147188 C 51.367188 53.209688 53.167969 51.240938 56.773438 51.240938 C 59.515625 51.240938 63.175781 53.190156 67.75 57.0925 C 72.320312 60.990938 76.3125 65.709688 79.722656 71.24875 C 83.132812 76.787813 84.835938 81.776094 84.835938 86.221406 C 84.835938 88.994844 83.800781 90.381563 81.730469 90.381563 Z M 124.019531 91.225313 C 125.710938 91.225313 126.558594 90.514375 126.558594 89.0925 C 126.558594 88.264375 126.109375 87.170625 125.191406 85.803438 C 124.28125 84.43625 123.230469 83.362031 122.058594 82.572969 C 120.171875 80.338594 118.410156 77.944063 116.769531 75.397188 C 115.269531 73.080781 113.621094 70.537813 111.800781 67.764375 C 112.558594 68.783906 113.769531 69.963594 115.421875 71.31125 C 117.539062 73.045625 119.308594 74.432344 120.730469 75.4675 C 122.148438 76.506563 123.570312 77.334688 125 77.959688 C 126.441406 78.584688 127.890625 78.897188 129.359375 78.897188 C 130.519531 78.897188 131.320312 78.639375 131.761719 78.12375 C 132.199219 77.608125 132.421875 76.803438 132.421875 75.705781 C 132.421875 73.244844 131.820312 70.846406 130.628906 68.518281 C 129.441406 66.18625 127.761719 63.791719 125.578125 61.334688 C 123.398438 58.877656 120.878906 56.588594 118.011719 54.471406 C 118.550781 54.475313 119.320312 54.475313 120.339844 54.475313 C 123.429688 54.475313 128.058594 56.822969 134.21875 61.518281 C 134.601562 63.358125 135.25 65.080781 136.171875 66.694063 C 137.738281 69.432344 140.261719 72.287813 143.738281 75.268281 C 146.140625 77.319063 148.539062 78.87375 150.949219 79.932344 C 153.351562 80.994844 155.519531 81.522188 157.449219 81.522188 C 159.109375 81.522188 160.480469 81.108125 161.53125 80.283906 C 162.589844 79.455781 163.121094 78.237031 163.121094 76.635469 C 163.121094 74.49875 162.351562 72.416719 160.820312 70.377656 C 159.289062 68.3425 157 66.350313 153.949219 64.401094 C 150.898438 62.455781 147.410156 60.68625 143.480469 59.0925 L 143.480469 58.576875 C 143.480469 56.994844 143.828125 55.795625 144.539062 54.987031 C 145.261719 54.178438 146.179688 53.772188 147.308594 53.772188 C 148.691406 53.772188 150.140625 54.104219 151.648438 54.768281 C 153.160156 55.428438 154.679688 56.326875 156.230469 57.455781 C 157.519531 58.401094 159.449219 59.690156 162.011719 61.326875 C 162.109375 61.920625 162.25 62.440156 162.429688 62.881563 C 162.839844 63.905 163.628906 65.319063 164.800781 67.127656 C 166.96875 70.459688 168.871094 72.93625 170.511719 74.557344 C 172.140625 76.178438 173.789062 76.990938 175.460938 76.990938 C 176.609375 76.990938 177.601562 76.752656 178.441406 76.276094 C 179.289062 75.799531 179.710938 75.037813 179.710938 73.987031 C 179.710938 73.53 179.589844 73.076875 179.351562 72.635469 C 179.101562 72.194063 178.890625 71.858125 178.699219 71.631563 C 178.511719 71.408906 178.011719 70.854219 177.199219 69.971406 C 172.46875 64.740938 170.109375 61.440156 170.109375 60.072969 C 170.109375 59.858125 170.078125 59.729219 170.03125 59.690156 C 170.179688 59.760469 170.660156 60.190156 171.460938 60.979219 C 172.339844 61.846406 173.660156 63.346406 175.410156 65.471406 C 177.171875 67.600313 179.199219 69.7175 181.511719 71.822969 C 183.828125 73.932344 186.511719 75.99875 189.570312 78.018281 C 191.261719 79.197969 192.738281 79.787813 194.011719 79.787813 C 194.960938 79.787813 195.730469 78.979219 196.300781 77.365938 C 196.871094 75.752656 197.148438 74.213594 197.148438 72.74875 C 197.148438 71.826875 196.339844 70.522188 194.71875 68.830781 C 189.621094 63.162813 187.070312 59.260469 187.070312 57.127656 C 187.070312 56.432344 187.28125 56.088594 187.699219 56.088594 C 188.398438 56.088594 189.421875 56.526094 190.761719 57.405 C 192.101562 58.283906 194.800781 59.975313 198.851562 62.479219 L 198.851562 58.002656 C 194.261719 53.471406 190.75 50.221406 188.328125 48.244844 C 185.910156 46.272188 183.839844 45.283906 182.128906 45.283906 C 178.988281 45.283906 177.421875 47.252656 177.421875 51.190156 C 177.421875 52.264375 177.578125 53.315156 177.921875 54.3425 C 178.25 55.369844 178.691406 56.412813 179.238281 57.471406 C 179.800781 58.533906 180.609375 59.9675 181.671875 61.78 C 182.738281 63.5925 183.988281 65.346406 185.429688 67.037813 C 184.710938 66.268281 183.058594 64.596406 180.480469 62.026094 C 178.769531 60.37375 177.351562 58.838594 176.210938 57.424531 C 175.078125 56.010469 173.808594 54.362031 172.398438 52.479219 C 171 50.600313 169.929688 49.291719 169.191406 48.553438 C 168.460938 47.815156 167.621094 47.444063 166.699219 47.444063 C 165.289062 47.444063 164.121094 48.5925 163.199219 50.889375 C 162.53125 52.549531 162.101562 54.354219 161.921875 56.31125 C 158.890625 52.854219 156.039062 50.151094 153.371094 48.190156 C 150.21875 45.881563 146.96875 44.725313 143.621094 44.725313 C 140.578125 44.725313 138.179688 45.881563 136.441406 48.194063 C 134.871094 50.28 134 53.010469 133.851562 56.385469 C 131.929688 54.690156 130.109375 53.135469 128.398438 51.725313 C 126.171875 49.881563 124.019531 48.377656 121.960938 47.2175 C 119.890625 46.057344 117.941406 45.475313 116.109375 45.475313 C 115.421875 45.475313 114.699219 45.549531 113.96875 45.697969 C 113.230469 45.846406 112.550781 46.026094 111.941406 46.233125 C 111.320312 46.444063 110.578125 46.725313 109.699219 47.076875 C 108.828125 47.424531 108.210938 47.670625 107.851562 47.819063 C 107.011719 47.576875 106.46875 47.451875 106.230469 47.451875 C 104.980469 47.451875 103.859375 47.881563 102.859375 48.740938 C 102.191406 47.174531 101.238281 44.826875 100.019531 41.690156 C 98.804688 38.557344 97.777344 36.065156 96.941406 34.209688 C 96.105469 32.354219 94.945312 30.518281 93.464844 28.709688 C 92.515625 27.760469 91.746094 27.287813 91.15625 27.287813 C 89.214844 27.287813 88.242188 28.764375 88.242188 31.7175 C 88.242188 33.87375 88.65625 36.069063 89.480469 38.295625 C 90.308594 40.526094 91.335938 42.666719 92.570312 44.713594 C 93.800781 46.760469 95.105469 48.764375 96.480469 50.721406 C 97.855469 52.678438 98.84375 54.158906 99.433594 55.155 C 104.269531 63.479219 107.988281 70.104219 110.621094 75.041719 C 104.660156 66.631563 99.332031 60.471406 94.628906 56.553438 L 94.628906 61.084688 C 99.0625 65.901094 102.828125 70.358125 105.929688 74.447969 C 109.019531 78.541719 111.480469 81.81125 113.320312 84.268281 C 115.148438 86.721406 116.820312 88.494844 118.328125 89.584688 C 119.839844 90.678438 121.738281 91.225313 124.019531 91.225313 Z M 81.535156 107.209688 C 84.015625 107.209688 85.902344 106.471406 87.203125 104.979219 C 88.5 103.490938 89.695312 100.799531 90.789062 96.912813 C 88.425781 96.830781 86.386719 96.639375 84.679688 96.330781 C 86.125 96.182344 87.402344 95.756563 88.519531 95.053438 C 89.953125 94.155 91.015625 92.951875 91.714844 91.43625 C 92.410156 89.924531 92.757812 88.31125 92.757812 86.596406 C 92.757812 84.049531 92.292969 81.127656 91.363281 77.830781 C 90.433594 74.533906 89.121094 71.221406 87.429688 67.889375 C 85.734375 64.557344 83.722656 61.377656 81.394531 58.354219 C 78.234375 54.291719 74.421875 51.002656 69.953125 48.490938 C 65.484375 45.979219 61.355469 44.725313 57.5625 44.725313 C 54.675781 44.725313 52.140625 45.506563 49.957031 47.065156 C 47.773438 48.627656 46.078125 50.858125 44.875 53.764375 C 43.671875 56.670625 43.070312 60.065156 43.070312 63.951875 C 43.070312 69.143281 44.46875 74.307344 47.261719 79.444063 C 50.054688 84.580781 53.578125 89.229219 57.835938 93.393281 C 62.09375 97.56125 66.398438 100.901094 70.753906 103.428438 C 75.105469 105.951875 78.699219 107.209688 81.535156 107.209688 Z M 81.535156 107.209688 " transform="matrix(1,0,0,-1,0,141.7)"/>
    <path style="fill-rule:nonzero;fill:rgb(219,219,239);fill-opacity:1;stroke-width:3;stroke-linecap:butt;stroke-linejoin:round;stroke:rgb(0,0,69);stroke-opacity:1;stroke-miterlimit:10;" d="M 252.789062 109.268281 C 254.519531 109.268281 256.011719 108.850313 257.25 107.990938 C 258.488281 107.139375 259.429688 105.940156 260.070312 104.389375 C 260.710938 102.838594 261.03125 101.088594 261.03125 99.143281 C 261.03125 95.537813 259.828125 91.56125 257.410156 87.213594 C 255 82.869844 252 78.690156 248.429688 74.682344 C 244.859375 70.674531 241.421875 67.385469 238.121094 64.807344 C 234.820312 62.233125 232.351562 60.944063 230.699219 60.944063 C 229.5 60.944063 228.398438 61.408906 227.398438 62.330781 C 226.410156 63.256563 225.910156 64.330781 225.910156 65.56125 C 225.910156 67.522188 226.859375 69.783906 228.78125 72.350313 C 230.699219 74.920625 232.820312 77.299531 235.128906 79.487031 C 237.449219 81.674531 238.941406 82.768281 239.621094 82.768281 C 240.488281 82.768281 240.921875 82.365938 240.921875 81.557344 C 240.921875 81.358125 240.878906 81.127656 240.800781 80.865938 C 241.410156 81.502656 242.199219 82.362031 243.160156 83.43625 C 245.519531 86.088594 247.710938 89.045625 249.71875 92.307344 C 251.730469 95.569063 252.738281 98.182344 252.738281 100.139375 C 252.738281 100.799531 252.621094 101.268281 252.398438 101.541719 C 252.179688 101.819063 251.839844 101.959688 251.378906 101.959688 C 249.46875 101.959688 246.390625 100.260469 242.140625 96.869844 C 237.878906 93.479219 233.488281 89.12375 228.960938 83.807344 C 224.429688 78.487031 220.660156 73.010469 217.648438 67.369844 C 214.628906 61.729219 213.128906 56.81125 213.128906 52.608125 C 213.128906 50.209688 213.46875 48.244844 214.148438 46.709688 C 214.839844 45.174531 215.820312 43.99875 217.109375 43.182344 C 218.398438 42.369844 219.980469 41.959688 221.839844 41.959688 C 226.101562 41.959688 231 43.658906 236.511719 47.053438 C 242.03125 50.451875 248.710938 55.600313 256.539062 62.49875 L 256.539062 58.229219 C 251.199219 52.276094 246.351562 47.416719 242 43.651094 C 237.648438 39.885469 233.371094 36.971406 229.171875 34.916719 C 224.96875 32.862031 220.878906 31.834688 216.878906 31.834688 C 213.398438 31.834688 210.398438 32.537813 207.871094 33.940156 C 205.351562 35.3425 203.441406 37.385469 202.160156 40.065156 C 200.878906 42.744844 200.238281 45.889375 200.238281 49.502656 C 200.238281 52.326875 200.679688 55.299531 201.578125 58.420625 C 202.46875 61.541719 203.75 64.670625 205.421875 67.807344 C 207.089844 70.944063 209.140625 74.194063 211.570312 77.549531 C 214.011719 80.905 216.859375 84.416719 220.128906 88.084688 C 223.558594 91.928438 226.921875 95.225313 230.210938 97.975313 C 233.488281 100.729219 236.488281 102.901094 239.199219 104.490938 C 241.921875 106.080781 244.460938 107.28 246.839844 108.069063 C 249.21875 108.869844 251.199219 109.268281 252.789062 109.268281 Z M 252.789062 109.268281 " transform="matrix(1,0,0,-1,3,141.7)"/>
    <path style="fill-rule:nonzero;fill:rgb(239,239,239);fill-opacity:1;stroke-width:3;stroke-linecap:butt;stroke-linejoin:round;stroke:rgb(69,69,69);stroke-opacity:1;stroke-miterlimit:10;" d="M 297.011719 90.381563 C 295.109375 90.381563 292.71875 89.588594 289.839844 88.002656 C 286.949219 86.416719 283.980469 84.041719 280.910156 80.881563 C 280.320312 80.006563 278 77.31125 273.960938 72.795625 C 274.238281 74.545625 274.71875 76.28 275.421875 77.99875 C 274.929688 77.170625 274.410156 76.283906 273.839844 75.346406 C 271.679688 71.764375 269.941406 68.268281 268.621094 64.862031 C 267.308594 61.455781 266.648438 58.885469 266.648438 57.147188 C 266.648438 53.209688 268.449219 51.240938 272.050781 51.240938 C 274.800781 51.240938 278.460938 53.190156 283.03125 57.0925 C 287.601562 60.990938 291.589844 65.709688 295 71.24875 C 298.410156 76.787813 300.121094 81.776094 300.121094 86.221406 C 300.121094 88.994844 299.078125 90.381563 297.011719 90.381563 Z M 296.820312 107.209688 C 299.289062 107.209688 301.179688 106.471406 302.480469 104.979219 C 303.78125 103.490938 304.980469 100.799531 306.070312 96.912813 C 303.699219 96.830781 301.671875 96.639375 299.960938 96.330781 C 301.398438 96.182344 302.679688 95.756563 303.800781 95.053438 C 305.230469 94.155 306.300781 92.951875 306.988281 91.43625 C 307.691406 89.924531 308.039062 88.31125 308.039062 86.596406 C 308.039062 84.049531 307.570312 81.127656 306.640625 77.830781 C 305.710938 74.533906 304.398438 71.221406 302.710938 67.889375 C 301.011719 64.557344 299 61.377656 296.679688 58.354219 C 293.519531 54.291719 289.699219 51.002656 285.230469 48.490938 C 280.769531 45.979219 276.640625 44.725313 272.839844 44.725313 C 269.960938 44.725313 267.421875 45.506563 265.238281 47.065156 C 263.050781 48.627656 261.359375 50.858125 260.160156 53.764375 C 258.949219 56.670625 258.351562 60.065156 258.351562 63.951875 C 258.351562 69.143281 259.75 74.307344 262.539062 79.444063 C 265.328125 84.580781 268.859375 89.229219 273.121094 93.393281 C 277.371094 97.56125 281.679688 100.901094 286.03125 103.428438 C 290.390625 105.951875 293.980469 107.209688 296.820312 107.209688 Z M 296.820312 107.209688 " transform="matrix(1,0,0,-1,7,141.7)"/>
    <path style="fill-rule:nonzero;fill:rgb(239,219,219);fill-opacity:1;stroke-width:3;stroke-linecap:butt;stroke-linejoin:round;stroke:rgb(69,0,0);stroke-opacity:1;stroke-miterlimit:10;" d="M 359.691406 92.256563 C 358.789062 92.256563 357.851562 92.233125 356.859375 92.190156 C 355.871094 92.147188 354.679688 92.057344 353.269531 91.920625 C 352.25 91.822969 351.640625 91.764375 351.421875 91.744844 C 351.429688 91.565156 351.441406 91.389375 351.441406 91.221406 C 351.441406 90.240938 351.140625 89.135469 350.550781 87.905 C 349.960938 86.674531 349.269531 85.533906 348.480469 84.483125 C 347.691406 83.432344 346.429688 81.744844 344.691406 79.416719 C 342.941406 77.088594 341.441406 75.506563 340.171875 74.678438 C 345.671875 75.850313 350.71875 77.010469 355.328125 78.158906 C 359.941406 79.303438 363.671875 80.432344 366.539062 81.549531 C 369.398438 82.666719 371.488281 83.795625 372.828125 84.93625 C 374.171875 86.076875 374.839844 87.194063 374.839844 88.283906 C 374.839844 89.334688 373.410156 90.260469 370.558594 91.057344 C 367.710938 91.858125 364.089844 92.256563 359.691406 92.256563 Z M 355.28125 105.291719 C 357.660156 105.291719 360.019531 105.151094 362.359375 104.858125 C 364.699219 104.580781 366.828125 104.240938 368.738281 103.819063 C 370.660156 103.408906 372.269531 102.971406 373.578125 102.479219 C 376.308594 101.580781 378.488281 100.119844 380.101562 98.096406 C 381.71875 96.072969 382.519531 93.8425 382.519531 91.408906 C 382.519531 89.135469 382.128906 86.908906 381.339844 84.733125 C 380.539062 82.553438 379.328125 80.545625 377.710938 78.701875 C 376.078125 76.854219 373.941406 75.319063 371.269531 74.088594 C 369.800781 73.205781 367.210938 72.28 363.519531 71.307344 C 359.828125 70.334688 355.429688 69.483125 350.339844 68.74875 C 345.238281 68.014375 339.800781 67.56125 334.019531 67.385469 C 338.339844 66.756563 342.539062 65.612031 346.621094 63.944063 C 350.699219 62.283906 354.128906 60.803438 356.921875 59.510469 C 359.699219 58.221406 361.941406 57.135469 363.628906 56.256563 C 365.941406 55.049531 367.488281 54.151094 368.261719 53.553438 C 369.03125 52.959688 369.550781 52.166719 369.800781 51.182344 C 370.058594 50.197969 370.191406 48.737031 370.191406 46.799531 C 370.191406 44.580781 370.019531 42.819063 369.691406 41.518281 C 369.359375 40.221406 368.511719 39.569063 367.128906 39.569063 C 366.691406 39.569063 365.851562 39.885469 364.601562 40.518281 C 363.351562 41.147188 361.691406 42.037813 359.601562 43.18625 C 357.519531 44.334688 355.601562 45.369844 353.859375 46.299531 C 352.109375 47.225313 349.28125 48.799531 345.378906 51.022188 L 329.300781 58.627656 C 325.28125 52.955781 323.019531 49.201875 322.53125 47.377656 C 322.101562 45.799531 321.171875 44.479219 319.71875 43.412813 C 318.28125 42.350313 317.171875 41.819063 316.390625 41.819063 C 314.210938 41.819063 313.109375 42.729219 313.109375 44.549531 C 313.109375 45.401094 314.058594 47.4675 315.960938 50.752656 C 317.859375 54.033906 320.390625 57.541719 323.550781 61.272188 C 322.121094 61.705781 321.101562 62.104219 320.480469 62.475313 C 319.859375 62.8425 319.601562 63.514375 319.699219 64.483125 C 319.800781 65.455781 320.378906 66.733125 321.441406 68.322969 C 322.328125 69.662813 323.03125 70.584688 323.511719 71.088594 C 324 71.596406 324.578125 71.99875 325.261719 72.303438 C 325.941406 72.608125 326.589844 72.803438 327.210938 72.889375 C 327.828125 72.979219 329.558594 73.201875 332.410156 73.553438 C 334.679688 76.615938 337.230469 80.045625 340.058594 83.838594 C 342.890625 87.631563 345.050781 90.084688 346.53125 91.201875 C 342.46875 90.565156 339.558594 90.049531 337.808594 89.655 C 335.960938 89.291719 334.289062 88.9675 332.808594 88.68625 C 331.570312 88.447969 330.730469 88.268281 330.300781 88.147188 C 330.679688 88.100313 331.308594 88.076875 332.191406 88.076875 C 333.21875 88.076875 334.179688 88.014375 335.070312 87.897188 C 335.960938 87.776094 336.410156 87.307344 336.410156 86.49875 C 336.410156 85.604219 335.878906 85.12375 334.820312 85.06125 C 333.769531 84.994844 331.5 84.885469 328.011719 84.733125 C 326.089844 84.670625 324.449219 84.608125 323.109375 84.541719 C 321.761719 84.475313 320.808594 84.444063 320.261719 84.444063 C 319.269531 84.444063 318.5 84.752656 317.921875 85.369844 C 317.351562 85.983125 317.070312 86.768281 317.070312 87.725313 C 317.070312 88.385469 317.371094 89.459688 317.988281 90.951875 C 318.609375 92.444063 319.480469 93.951875 320.621094 95.475313 C 321.75 96.99875 323.121094 98.225313 324.730469 99.155 C 326.238281 100.069063 328.671875 101.018281 332.03125 101.99875 C 335.398438 102.990938 339.109375 103.78 343.191406 104.381563 C 347.261719 104.990938 351.289062 105.291719 355.28125 105.291719 Z M 355.28125 105.291719 " transform="matrix(1,0,0,-1,5,141.7)"/>
</svg>
