<?xml version="1.0" encoding="UTF-8" standalone="no"?>
<svg xmlns="http://www.w3.org/2000/svg">
    <g transform="translate(-175.65519,-106.84442)">
        <path d="m 256.36624,149.9567 c -1.26172,0 -3.23047,1.21484 -5.89062,3.64062 -2.66016,2.42969 -5.37891,5.26172 -8.16016,8.50391 1.60937,-0.24219 2.84766,-0.32031 3.71875,-0.23047 0.87109,0.0859 1.82031,0.48438 2.83984,1.19922 2.66016,-2.96094 4.69922,-5.50781 6.1211,-7.64453 1.41797,-2.13672 2.1289,-3.70703 2.1289,-4.70703 0,-0.50782 -0.25,-0.76172 -0.75781,-0.76172 z m 33.26953,-5.29688 c -0.37109,0 -1.12891,0.32422 -2.26172,0.96875 -1.14062,0.64453 -2.30859,1.50391 -3.50781,2.57813 -1.21094,1.07812 -2.29297,2.33984 -3.25,3.78515 -0.95313,1.44922 -1.57031,2.65235 -1.83984,3.60547 1.76953,-0.98828 3.59765,-2.25 5.48828,-3.78125 1.8789,-1.53125 3.25,-2.96484 4.10937,-4.29687 0.85156,-1.33203 1.28125,-2.2461 1.28125,-2.74219 0,-0.0781 -0.0117,-0.11719 -0.0195,-0.11719 z m -73.07032,-15.79687 c -1.90234,0 -4.29296,0.79297 -7.17578,2.3789 -2.88281,1.58594 -5.85547,3.96094 -8.92578,7.1211 -0.58984,0.875 -2.90625,3.57031 -6.94531,8.08594 0.27344,-1.75 0.75781,-3.48438 1.45312,-5.20313 -0.48437,0.82813 -1.01171,1.71484 -1.57812,2.65234 -2.16406,3.58204 -3.90234,7.07813 -5.21875,10.48438 -1.31641,3.40625 -1.97266,5.97656 -1.97266,7.71484 0,3.9375 1.80078,5.90625 5.40625,5.90625 2.74219,0 6.40235,-1.94922 10.97657,-5.85156 4.57031,-3.89844 8.5625,-8.61719 11.97265,-14.15625 3.41016,-5.53906 5.11328,-10.52734 5.11328,-14.97266 0,-2.77343 -1.03515,-4.16015 -3.10547,-4.16015 z m 42.28907,-0.84375 c 1.69141,0 2.53906,0.71094 2.53906,2.13281 0,0.82813 -0.44921,1.92188 -1.36718,3.28906 -0.91016,1.36719 -1.96094,2.44141 -3.13282,3.23047 -1.88671,2.23438 -3.64843,4.62891 -5.28906,7.17578 -1.5,2.31641 -3.14844,4.85938 -4.96875,7.63282 0.75781,-1.01954 1.96875,-2.19922 3.6211,-3.54688 2.11718,-1.73437 3.88671,-3.12109 5.30859,-4.15625 1.41797,-1.03906 2.83984,-1.86719 4.26953,-2.49219 1.44141,-0.625 2.89063,-0.9375 4.35937,-0.9375 1.16016,0 1.96094,0.25782 2.40235,0.77344 0.4375,0.51563 0.66015,1.32031 0.66015,2.41797 0,2.46094 -0.60156,4.85937 -1.79296,7.1875 -1.1875,2.33203 -2.86719,4.72656 -5.05078,7.18359 -2.17969,2.45703 -4.69922,4.7461 -7.56641,6.86328 0.53906,-0.004 1.30859,-0.004 2.32812,-0.004 3.08985,0 7.71875,-2.34765 13.87891,-7.04296 0.38281,-1.83985 1.03125,-3.5625 1.95312,-5.17579 1.56641,-2.73828 4.08985,-5.59375 7.56641,-8.57421 2.40234,-2.05079 4.80078,-3.60547 7.21094,-4.66407 2.40234,-1.0625 4.57031,-1.58984 6.5,-1.58984 1.66015,0 3.03125,0.41406 4.08203,1.23828 1.05859,0.82813 1.58984,2.04688 1.58984,3.64844 0,2.13672 -0.76953,4.21875 -2.30078,6.25781 -1.53125,2.03515 -3.82031,4.02734 -6.87109,5.97656 -3.05078,1.94531 -6.53906,3.71484 -10.46875,5.30859 l 0,0.51564 c 0,1.58203 0.34765,2.78125 1.05859,3.58983 0.72266,0.80859 1.64063,1.21484 2.76953,1.21484 1.38282,0 2.83203,-0.33203 4.33985,-0.99609 1.51172,-0.66016 3.03125,-1.55858 4.58203,-2.6875 1.28906,-0.94531 3.21875,-2.23438 5.78125,-3.87108 0.0977,-0.59375 0.23828,-1.1133 0.41797,-1.55469 0.41015,-1.02344 1.19922,-2.43751 2.37109,-4.24611 2.16797,-3.33203 4.07031,-5.80859 5.71094,-7.42968 1.6289,-1.6211 3.27734,-2.4336 4.94922,-2.4336 1.14843,0 2.14062,0.23828 2.98047,0.71485 0.84765,0.47656 1.26953,1.23828 1.26953,2.28906 0,0.45703 -0.1211,0.91016 -0.35938,1.35156 -0.25,0.44141 -0.46094,0.77735 -0.65234,1.00391 -0.1875,0.22265 -0.6875,0.77734 -1.5,1.66015 -4.73047,5.23047 -7.08985,8.53126 -7.08985,9.89845 0,0.21485 -0.0312,0.34375 -0.0781,0.38281 0.14844,-0.0703 0.62891,-0.5 1.42969,-1.28906 0.8789,-0.86719 2.19922,-2.36719 3.94922,-4.4922 1.76171,-2.1289 3.78906,-4.24609 6.10156,-6.35156 2.3164,-2.10937 5,-4.17578 8.05859,-6.19531 1.69141,-1.17969 3.16797,-1.76953 4.44141,-1.76953 0.94922,0 1.71875,0.80859 2.28906,2.42187 0.57031,1.61328 0.84766,3.15235 0.84766,4.61719 0,0.92188 -0.8086,2.22656 -2.42969,3.91797 -5.09766,5.66797 -7.64844,9.57031 -7.64844,11.70312 0,0.69532 0.21094,1.03907 0.62891,1.03907 0.69922,0 1.72265,-0.4375 3.0625,-1.31641 1.33984,-0.87891 4.03906,-2.57031 8.08984,-5.07422 l 0,4.47656 c -4.58984,4.53125 -8.10156,7.78125 -10.52344,9.75782 -2.41796,1.97265 -4.48828,2.96093 -6.19921,2.96093 -3.14063,0 -4.70704,-1.96875 -4.70704,-5.90625 0,-1.0742 0.15625,-2.125 0.5,-3.15234 0.32813,-1.02733 0.76954,-2.07031 1.31641,-3.12891 0.5625,-1.0625 1.37109,-2.49609 2.43359,-4.30859 1.06641,-1.8125 2.31641,-3.56641 3.75782,-5.25781 -0.71875,0.76953 -2.3711,2.4414 -4.94922,5.01172 -1.71094,1.65234 -3.12891,3.1875 -4.26953,4.60156 -1.13282,1.41406 -2.40235,3.0625 -3.8125,4.94531 -1.39844,1.87892 -2.46875,3.1875 -3.20703,3.92578 -0.73047,0.73828 -1.57032,1.10939 -2.49219,1.10939 -1.41016,0 -2.57813,-1.14844 -3.5,-3.44531 -0.66797,-1.66017 -1.09766,-3.46486 -1.27735,-5.42189 -3.03125,3.45703 -5.88281,6.16017 -8.55078,8.12109 -3.15234,2.3086 -6.40234,3.46485 -9.75,3.46485 -3.04297,0 -5.4414,-1.15625 -7.17968,-3.46875 -1.57032,-2.08594 -2.44141,-4.81641 -2.58985,-8.19141 -1.92187,1.69531 -3.74219,3.25 -5.45312,4.66016 -2.22656,1.84375 -4.37891,3.34765 -6.4375,4.50781 -2.07031,1.16017 -4.01953,1.74219 -5.85156,1.74219 -0.6875,0 -1.41016,-0.0742 -2.14063,-0.22266 -0.73828,-0.14844 -1.41797,-0.32812 -2.02734,-0.53515 -0.6211,-0.21094 -1.36328,-0.49219 -2.24219,-0.84375 -0.87109,-0.34766 -1.48828,-0.59375 -1.84766,-0.74219 -0.83984,0.24219 -1.38281,0.36719 -1.62109,0.36719 -1.25,0 -2.37109,-0.42969 -3.37109,-1.28907 -0.66797,1.56641 -1.6211,3.91407 -2.83985,7.05078 -1.21485,3.13282 -2.24219,5.625 -3.07813,7.48047 -0.83594,1.85547 -1.99609,3.69141 -3.47656,5.5 -0.94922,0.94922 -1.71875,1.42188 -2.30859,1.42188 -1.94141,0 -2.91407,-1.47656 -2.91407,-4.42968 0,-2.15625 0.41407,-4.35156 1.23828,-6.57812 0.82813,-2.23047 1.85547,-4.3711 3.08985,-6.41797 1.23047,-2.04688 2.53515,-4.05078 3.91015,-6.00782 1.375,-1.95703 2.36329,-3.4375 2.95313,-4.43359 4.83594,-8.32422 8.55469,-14.94923 11.1875,-19.88673 -5.96095,8.41016 -11.28908,14.57032 -15.99221,18.48829 l 0,-4.53125 c 4.4336,-4.81641 8.19923,-9.27344 11.30079,-13.36329 3.08984,-4.09375 5.55078,-7.36328 7.39062,-9.82031 1.82813,-2.45313 3.5,-4.22656 5.00782,-5.31641 1.51171,-1.09375 3.41015,-1.64062 5.6914,-1.64062 z m -42.48438,-15.98438 c 2.48047,0 4.36719,0.73828 5.66797,2.23047 1.29688,1.48828 2.49219,4.17969 3.58594,8.06641 -2.36328,0.082 -4.40235,0.27344 -6.10938,0.58203 1.44532,0.14844 2.72266,0.57422 3.83985,1.27734 1.43359,0.89844 2.49609,2.10157 3.19531,3.61719 0.69531,1.51172 1.04297,3.125 1.04297,4.83984 0,2.54688 -0.46485,5.46875 -1.39453,8.76563 -0.92969,3.29687 -2.24219,6.60937 -3.9336,9.94141 -1.69531,3.33203 -3.70703,6.51171 -6.03515,9.53515 -3.16016,4.0625 -6.97266,7.35156 -11.44141,9.86328 -4.46875,2.51172 -8.59766,3.76563 -12.39062,3.76563 -2.88672,0 -5.42188,-0.78125 -7.60547,-2.33985 -2.1836,-1.5625 -3.87891,-3.79296 -5.08203,-6.69921 -1.20313,-2.90625 -1.80469,-6.30079 -1.80469,-10.1875 0,-5.19141 1.39844,-10.35547 4.1914,-15.49219 2.79297,-5.13672 6.31641,-9.78516 10.57422,-13.94922 4.25782,-4.16797 8.5625,-7.50781 12.91797,-10.03516 4.35156,-2.52344 7.94531,-3.78125 10.78125,-3.78125 z m 0,0" style="fill:#a9a9a9;fill-opacity:1;fill-rule:nonzero;stroke:#a9a9a9;stroke-width:1.5;stroke-linecap:butt;stroke-linejoin:round;stroke-miterlimit:10;stroke-opacity:1;display:inline" />
        <path d="m 390.62405,109.97623 c 1.73047,0 3.22266,0.41797 4.46094,1.27734 1.23828,0.85156 2.17969,2.05078 2.82031,3.60156 0.64063,1.55079 0.96094,3.30079 0.96094,5.2461 0,3.60547 -1.20313,7.58203 -3.62109,11.92969 -2.41016,4.34375 -5.41016,8.52343 -8.98047,12.53125 -3.57032,4.00781 -7.00782,7.29687 -10.3086,9.875 -3.30078,2.57422 -5.76953,3.86328 -7.42187,3.86328 -1.19922,0 -2.30078,-0.46484 -3.30078,-1.38672 -0.98828,-0.92578 -1.48828,-2 -1.48828,-3.23047 0,-1.96094 0.94921,-4.22266 2.87109,-6.78906 1.91797,-2.57031 4.03906,-4.94922 6.34766,-7.13672 2.32031,-2.1875 3.8125,-3.28125 4.49218,-3.28125 0.86719,0 1.30078,0.40234 1.30078,1.21094 0,0.19922 -0.043,0.42968 -0.12109,0.6914 0.60938,-0.63672 1.39844,-1.49609 2.35938,-2.57031 2.35937,-2.65234 4.55078,-5.60937 6.55859,-8.87109 2.01172,-3.26172 3.01953,-5.875 3.01953,-7.83204 0,-0.66015 -0.11719,-1.1289 -0.33984,-1.40234 -0.21875,-0.27734 -0.5586,-0.41797 -1.01953,-0.41797 -1.91016,0 -4.98829,1.69922 -9.23829,5.08985 -4.26171,3.39062 -8.65234,7.74609 -13.17968,13.0625 -4.53125,5.32031 -8.30078,10.79687 -11.3125,16.4375 -3.01953,5.64062 -4.51953,10.55859 -4.51953,14.76172 0,2.39843 0.33984,4.36328 1.01953,5.89843 0.6914,1.53516 1.67187,2.71094 2.96093,3.52735 1.28907,0.8125 2.8711,1.22265 4.73047,1.22265 4.26172,0 9.16016,-1.69921 14.67188,-5.09375 5.51953,-3.39843 12.19922,-8.54687 20.02734,-15.44531 l 0,4.26953 c -5.33984,5.95314 -10.1875,10.8125 -14.53906,14.57814 -4.35156,3.76561 -8.62891,6.67968 -12.82813,8.73436 -4.20312,2.05469 -8.29296,3.08203 -12.29296,3.08203 -3.48047,0 -6.48047,-0.70312 -9.00782,-2.10546 -2.51953,-1.40235 -4.42968,-3.44532 -5.71093,-6.125 -1.28125,-2.67968 -1.92188,-5.82421 -1.92188,-9.4375 0,-2.82421 0.44141,-5.79687 1.33984,-8.91796 0.89063,-3.1211 2.17188,-6.25001 3.84375,-9.38673 1.66797,-3.13672 3.71875,-6.38672 6.14844,-9.74219 2.44141,-3.35547 5.28906,-6.86719 8.5586,-10.53516 3.42968,-3.84375 6.79296,-7.14062 10.08203,-9.89062 3.27734,-2.75391 6.27734,-4.92578 8.98828,-6.51563 2.72265,-1.58984 5.26172,-2.78906 7.64062,-3.57812 2.37891,-0.80078 4.35938,-1.19922 5.94922,-1.19922 z m 0,0" style="fill:#a9a9a9;fill-opacity:1;fill-rule:nonzero;stroke:#a9a9a9;stroke-width:3;stroke-linecap:butt;stroke-linejoin:round;stroke-miterlimit:10;stroke-opacity:1;display:inline" />
        <path d="m 438.84671,128.86295 c -1.90235,0 -4.29297,0.79297 -7.17188,2.3789 -2.89062,1.58594 -5.85937,3.96094 -8.92968,7.1211 -0.58985,0.875 -2.91016,3.57031 -6.94922,8.08594 0.27734,-1.75 0.75781,-3.48438 1.46093,-5.20313 -0.49218,0.82813 -1.01171,1.71484 -1.58203,2.65234 -2.16015,3.58204 -3.89843,7.07813 -5.21875,10.48438 -1.3125,3.40625 -1.97265,5.97656 -1.97265,7.71484 0,3.9375 1.80078,5.90625 5.40234,5.90625 2.75,0 6.41016,-1.94922 10.98047,-5.85156 4.57031,-3.89844 8.55859,-8.61719 11.96875,-14.15625 3.41016,-5.53906 5.12109,-10.52734 5.12109,-14.97266 0,-2.77343 -1.04297,-4.16015 -3.10937,-4.16015 z m -0.19141,-16.82813 c 2.46875,0 4.35938,0.73828 5.66016,2.23047 1.30078,1.48828 2.5,4.17969 3.58984,8.06641 -2.37109,0.082 -4.39844,0.27344 -6.10937,0.58203 1.4375,0.14844 2.71875,0.57422 3.83984,1.27734 1.42969,0.89844 2.5,2.10157 3.1875,3.61719 0.70313,1.51172 1.05078,3.125 1.05078,4.83984 0,2.54688 -0.46875,5.46875 -1.39844,8.76563 -0.92968,3.29687 -2.24218,6.60937 -3.92968,9.94141 -1.69922,3.33203 -3.71094,6.51171 -6.03125,9.53515 -3.16016,4.0625 -6.98047,7.35156 -11.44922,9.86328 -4.46094,2.51172 -8.58985,3.76563 -12.39063,3.76563 -2.8789,0 -5.41797,-0.78125 -7.60156,-2.33985 -2.1875,-1.5625 -3.87891,-3.79296 -5.07812,-6.69921 -1.21094,-2.90625 -1.8086,-6.30079 -1.8086,-10.1875 0,-5.19141 1.39844,-10.35547 4.1875,-15.49219 2.78906,-5.13672 6.32031,-9.78516 10.58203,-13.94922 4.25,-4.16797 8.5586,-7.50781 12.91016,-10.03516 4.35937,-2.52344 7.94922,-3.78125 10.78906,-3.78125 z m 0,0" style="fill:#a9a9a9;fill-opacity:1;fill-rule:nonzero;stroke:#a9a9a9;stroke-width:3;stroke-linecap:butt;stroke-linejoin:round;stroke-miterlimit:10;stroke-opacity:1;display:inline" />
        <path d="m 499.5264,126.98795 c -0.90235,0 -1.83985,0.0234 -2.83204,0.0664 -0.98828,0.043 -2.17968,0.13281 -3.58984,0.26953 -1.01953,0.0977 -1.62891,0.15625 -1.84766,0.17578 0.008,0.17969 0.0195,0.35547 0.0195,0.52344 0,0.98047 -0.30079,2.08593 -0.89063,3.3164 -0.58984,1.23047 -1.28125,2.3711 -2.07031,3.42188 -0.78906,1.05078 -2.05078,2.73828 -3.78906,5.0664 -1.75,2.32813 -3.25,3.91016 -4.51954,4.73829 5.5,-1.17188 10.54688,-2.33204 15.15625,-3.48047 4.61329,-1.14453 8.34375,-2.27344 11.21094,-3.39063 2.85938,-1.11719 4.94922,-2.24609 6.28906,-3.38672 1.34375,-1.14062 2.01172,-2.25781 2.01172,-3.34765 0,-1.05078 -1.42968,-1.97657 -4.28125,-2.77344 -2.84765,-0.80078 -6.46875,-1.19922 -10.86718,-1.19922 z m -4.41016,-13.03516 c 2.37891,0 4.73828,0.14063 7.07812,0.43359 2.33985,0.27735 4.46875,0.61719 6.37891,1.03907 1.92188,0.41015 3.53125,0.84765 4.83984,1.33984 2.73047,0.89844 4.91016,2.35938 6.52344,4.38281 1.61719,2.02344 2.41797,4.25391 2.41797,6.6875 0,2.27344 -0.39062,4.5 -1.17969,6.67579 -0.80078,2.17968 -2.01172,4.1875 -3.6289,6.03125 -1.63282,1.84765 -3.76953,3.38281 -6.44141,4.61328 -1.46875,0.88281 -4.05859,1.80859 -7.75,2.78125 -3.69141,0.97265 -8.08984,1.82422 -13.17969,2.55859 -5.10156,0.73438 -10.53906,1.1875 -16.32031,1.36328 4.32031,0.62891 8.51953,1.77344 12.60156,3.44142 4.07813,1.66015 7.50782,3.14061 10.30078,4.43358 2.77735,1.28907 5.01954,2.375 6.70704,3.25392 2.3125,1.20703 3.85937,2.10547 4.63281,2.70311 0.76953,0.59375 1.28906,1.38672 1.53906,2.37111 0.25781,0.98436 0.39063,2.44531 0.39063,4.38281 0,2.21875 -0.17188,3.98047 -0.5,5.28125 -0.33204,1.29687 -1.17969,1.94922 -2.5625,1.94922 -0.4375,0 -1.27735,-0.31642 -2.52735,-0.94922 -1.25,-0.62892 -2.91015,-1.51953 -5,-2.66797 -2.08203,-1.14844 -4,-2.18359 -5.74219,-3.11328 -1.75,-0.92578 -4.57812,-2.5 -8.48046,-4.72267 l -16.07813,-7.60546 c -4.01953,5.67188 -6.28125,9.42579 -6.76953,11.25 -0.42969,1.57813 -1.35938,2.89843 -2.8125,3.96485 -1.4375,1.0625 -2.54688,1.59375 -3.32813,1.59375 -2.17968,0 -3.28125,-0.91017 -3.28125,-2.73047 0,-0.85156 0.94922,-2.91797 2.85157,-6.20313 1.89843,-3.28125 4.42968,-6.78907 7.58984,-10.51954 -1.42969,-0.43358 -2.44922,-0.83203 -3.07031,-1.20311 -0.6211,-0.36719 -0.87891,-1.03906 -0.78125,-2.00782 0.10156,-0.97266 0.67969,-2.25 1.74219,-3.83985 0.88671,-1.33984 1.58984,-2.26172 2.07031,-2.76562 0.48828,-0.50782 1.0664,-0.91016 1.75,-1.21485 0.67969,-0.30468 1.32812,-0.5 1.94922,-0.58593 0.61718,-0.0898 2.34765,-0.3125 5.19922,-0.66407 2.26953,-3.0625 4.82031,-6.49218 7.64843,-10.28515 2.83203,-3.79297 4.99219,-6.2461 6.47266,-7.36328 -4.0625,0.63671 -6.97266,1.15234 -8.72266,1.54687 -1.84765,0.36328 -3.51953,0.6875 -5,0.96875 -1.23828,0.23828 -2.07812,0.41797 -2.50781,0.53906 0.37891,0.0469 1.00781,0.0703 1.89063,0.0703 1.02734,0 1.98828,0.0625 2.8789,0.17969 0.89063,0.12109 1.33985,0.58984 1.33985,1.39844 0,0.89453 -0.53125,1.375 -1.58985,1.4375 -1.05078,0.0664 -3.32031,0.17578 -6.80859,0.32812 -1.92188,0.0625 -3.5625,0.125 -4.90235,0.19141 -1.34765,0.0664 -2.30078,0.0977 -2.84765,0.0977 -0.99219,0 -1.76172,-0.30859 -2.33985,-0.92578 -0.57031,-0.61328 -0.85156,-1.39844 -0.85156,-2.35547 0,-0.66016 0.30078,-1.73438 0.91797,-3.22656 0.62109,-1.49219 1.49219,-3 2.63281,-4.52344 1.12891,-1.52344 2.5,-2.75 4.10938,-3.67969 1.50781,-0.91406 3.9414,-1.86328 7.30078,-2.84375 3.36719,-0.99219 7.07812,-1.78125 11.16016,-2.38281 4.07031,-0.60938 8.09765,-0.91016 12.08984,-0.91016 z m 0,0" style="fill:#a9a9a9;fill-opacity:1;fill-rule:nonzero;stroke:#a9a9a9;stroke-width:3;stroke-linecap:butt;stroke-linejoin:round;stroke-miterlimit:10;stroke-opacity:1;display:inline" />
    </g>
    <g transform="translate(-227.69981,-20.009717)">
        <path d="m 306.91075,61.621904 c -1.26172,0 -3.23047,1.214844 -5.89062,3.640625 -2.66016,2.429688 -5.37891,5.261719 -8.16016,8.503907 1.60937,-0.242188 2.84766,-0.320313 3.71875,-0.230469 0.87109,0.08594 1.82031,0.484375 2.83984,1.199219 2.66016,-2.960938 4.69922,-5.507813 6.1211,-7.644532 1.41797,-2.136718 2.1289,-3.707031 2.1289,-4.707031 0,-0.507812 -0.25,-0.761719 -0.75781,-0.761719 z m 33.26953,-5.296875 c -0.37109,0 -1.12891,0.324219 -2.26172,0.96875 -1.14062,0.644532 -2.30859,1.503907 -3.50781,2.578125 -1.21094,1.078125 -2.29297,2.339844 -3.25,3.785157 -0.95313,1.449218 -1.57031,2.652343 -1.83984,3.605468 1.76953,-0.988281 3.59765,-2.25 5.48828,-3.78125 1.8789,-1.53125 3.25,-2.964843 4.10937,-4.296875 0.85156,-1.332031 1.28125,-2.246093 1.28125,-2.742187 0,-0.07813 -0.0117,-0.117188 -0.0195,-0.117188 z M 267.10996,40.528154 c -1.90234,0 -4.29296,0.792969 -7.17578,2.378907 -2.88281,1.585937 -5.85547,3.960937 -8.92578,7.121093 -0.58984,0.875 -2.90625,3.570313 -6.94531,8.085938 0.27344,-1.75 0.75781,-3.484375 1.45312,-5.203125 -0.48437,0.828125 -1.01171,1.714844 -1.57812,2.652344 -2.16406,3.582031 -3.90234,7.078125 -5.21875,10.484375 -1.31641,3.40625 -1.97266,5.976562 -1.97266,7.714843 0,3.9375 1.80078,5.90625 5.40625,5.90625 2.74219,0 6.40235,-1.949218 10.97657,-5.851562 4.57031,-3.898438 8.5625,-8.617188 11.97265,-14.15625 3.41016,-5.539063 5.11328,-10.527344 5.11328,-14.972656 0,-2.773438 -1.03515,-4.160157 -3.10547,-4.160157 z m 42.28907,-0.84375 c 1.69141,0 2.53906,0.710938 2.53906,2.132813 0,0.828125 -0.44921,1.921875 -1.36718,3.289062 -0.91016,1.367188 -1.96094,2.441407 -3.13282,3.230469 -1.88671,2.234375 -3.64843,4.628906 -5.28906,7.175781 -1.5,2.316407 -3.14844,4.859375 -4.96875,7.632813 0.75781,-1.019531 1.96875,-2.199219 3.6211,-3.546875 2.11718,-1.734375 3.88671,-3.121094 5.30859,-4.15625 1.41797,-1.039063 2.83984,-1.867188 4.26953,-2.492188 1.44141,-0.625 2.89063,-0.9375 4.35937,-0.9375 1.16016,0 1.96094,0.257813 2.40235,0.773438 0.4375,0.515625 0.66015,1.320312 0.66015,2.417969 0,2.460937 -0.60156,4.859375 -1.79296,7.1875 -1.1875,2.332031 -2.86719,4.726562 -5.05078,7.183593 -2.17969,2.457032 -4.69922,4.746094 -7.56641,6.863282 0.53906,-0.0039 1.30859,-0.0039 2.32812,-0.0039 3.08985,0 7.71875,-2.347656 13.87891,-7.042968 0.38281,-1.839844 1.03125,-3.5625 1.95312,-5.175782 1.56641,-2.738281 4.08985,-5.59375 7.56641,-8.574218 2.40234,-2.050782 4.80078,-3.605469 7.21094,-4.664063 2.40234,-1.0625 4.57031,-1.589844 6.5,-1.589844 1.66015,0 3.03125,0.414063 4.08203,1.238282 1.05859,0.828125 1.58984,2.046875 1.58984,3.648437 0,2.136719 -0.76953,4.21875 -2.30078,6.257813 -1.53125,2.035149 -3.82031,4.027336 -6.87109,5.976555 -3.05078,1.945313 -6.53906,3.714844 -10.46875,5.308594 l 0,0.515625 c 0,1.582031 0.34765,2.78125 1.05859,3.589844 0.72266,0.808593 1.64063,1.214843 2.76953,1.214843 1.38282,0 2.83203,-0.332031 4.33985,-0.996093 1.51172,-0.660157 3.03125,-1.558594 4.58203,-2.6875 1.28906,-0.945313 3.21875,-2.234375 5.78125,-3.871094 0.0977,-0.59375 0.23828,-1.113281 0.41797,-1.554688 0.41015,-1.023437 1.19922,-2.4375 2.37109,-4.246093 2.16797,-3.332032 4.07031,-5.808594 5.71094,-7.429688 1.6289,-1.621094 3.27734,-2.433594 4.94922,-2.433594 1.14843,0 2.14062,0.238282 2.98047,0.714844 0.84765,0.476563 1.26953,1.238281 1.26953,2.289063 0,0.457031 -0.1211,0.910156 -0.35938,1.351562 -0.25,0.441406 -0.46094,0.777344 -0.65234,1.003906 -0.1875,0.222657 -0.6875,0.777344 -1.5,1.660157 -4.73047,5.230468 -7.08985,8.53125 -7.08985,9.898437 0,0.214844 -0.0312,0.34375 -0.0781,0.382813 0.14844,-0.07031 0.62891,-0.5 1.42969,-1.289063 0.8789,-0.867187 2.19922,-2.367187 3.94922,-4.492187 1.76171,-2.128907 3.78906,-4.246094 6.10156,-6.351563 2.3164,-2.109375 5,-4.175781 8.05859,-6.195312 1.69141,-1.179688 3.16797,-1.769532 4.44141,-1.769532 0.94922,0 1.71875,0.808594 2.28906,2.421875 0.57031,1.613282 0.84766,3.152344 0.84766,4.617188 0,0.921875 -0.8086,2.226562 -2.42969,3.917969 -5.09766,5.667968 -7.64844,9.570312 -7.64844,11.703125 0,0.695312 0.21094,1.039062 0.62891,1.039062 0.69922,0 1.72265,-0.4375 3.0625,-1.316406 1.33984,-0.878906 4.03906,-2.570313 8.08984,-5.074219 l 0,4.476563 c -4.58984,4.53125 -8.10156,7.78125 -10.52344,9.757812 -2.41796,1.972656 -4.48828,2.960938 -6.19921,2.960938 -3.14063,0 -4.70704,-1.96875 -4.70704,-5.90625 0,-1.074219 0.15625,-2.125 0.5,-3.152344 0.32813,-1.027344 0.76954,-2.070313 1.31641,-3.128906 0.5625,-1.0625 1.37109,-2.496094 2.43359,-4.308594 1.06641,-1.8125 2.31641,-3.566406 3.75782,-5.257813 -0.71875,0.769532 -2.3711,2.441407 -4.94922,5.011719 -1.71094,1.652344 -3.12891,3.1875 -4.26953,4.601563 -1.13282,1.414062 -2.40235,3.0625 -3.8125,4.945312 -1.39844,1.878906 -2.46875,3.1875 -3.20703,3.925781 -0.73047,0.738282 -1.57032,1.109375 -2.49219,1.109375 -1.41016,0 -2.57813,-1.148437 -3.5,-3.445312 -0.66797,-1.660156 -1.09766,-3.464844 -1.27735,-5.421875 -3.03125,3.457031 -5.88281,6.160156 -8.55078,8.121094 -3.15234,2.308593 -6.40234,3.464843 -9.75,3.464843 -3.04297,0 -5.4414,-1.15625 -7.17968,-3.46875 -1.57032,-2.085937 -2.44141,-4.816406 -2.58985,-8.191406 -1.92187,1.695313 -3.74219,3.25 -5.45312,4.660156 -2.22656,1.84375 -4.37891,3.347657 -6.4375,4.507813 -2.07031,1.160156 -4.01953,1.742187 -5.85156,1.742187 -0.6875,0 -1.41016,-0.07422 -2.14063,-0.222656 -0.73828,-0.148437 -1.41797,-0.328125 -2.02734,-0.535156 -0.6211,-0.210938 -1.36328,-0.492188 -2.24219,-0.84375 -0.87109,-0.347656 -1.48828,-0.59375 -1.84766,-0.742188 -0.83984,0.242188 -1.38281,0.367188 -1.62109,0.367188 -1.25,0 -2.37109,-0.429688 -3.37109,-1.289063 -0.66797,1.566407 -1.6211,3.914063 -2.83985,7.050782 -1.21485,3.132812 -2.24219,5.625 -3.07813,7.480468 -0.83594,1.855469 -1.99609,3.691411 -3.47656,5.500001 -0.94922,0.94922 -1.71875,1.42187 -2.30859,1.42187 -1.94141,0 -2.91407,-1.47656 -2.91407,-4.429683 0,-2.15625 0.41407,-4.351563 1.23828,-6.578125 0.82813,-2.230469 1.85547,-4.371094 3.08985,-6.417969 1.23047,-2.046875 2.53515,-4.050781 3.91015,-6.007812 1.375,-1.957032 2.36329,-3.4375 2.95313,-4.433594 4.83594,-8.324219 8.55469,-14.949219 11.1875,-19.886719 -5.96095,8.410156 -11.28908,14.570313 -15.99221,18.488281 l 0,-4.53125 c 4.4336,-4.816406 8.19923,-9.273437 11.30079,-13.363281 3.08984,-4.09375 5.55078,-7.363281 7.39062,-9.820312 1.82813,-2.453125 3.5,-4.226563 5.00782,-5.316407 1.51171,-1.09375 3.41015,-1.640625 5.6914,-1.640625 z M 266.91465,23.700027 c 2.48047,0 4.36719,0.73828 5.66797,2.23047 1.29688,1.48828 2.49219,4.17969 3.58594,8.066407 -2.36328,0.08203 -4.40235,0.273438 -6.10938,0.582032 1.44532,0.148437 2.72266,0.574218 3.83985,1.277343 1.43359,0.898438 2.49609,2.101563 3.19531,3.617188 0.69531,1.511719 1.04297,3.125 1.04297,4.839844 0,2.546875 -0.46485,5.46875 -1.39453,8.765625 -0.92969,3.296875 -2.24219,6.609375 -3.9336,9.941406 -1.69531,3.332031 -3.70703,6.511719 -6.03515,9.535156 -3.16016,4.0625 -6.97266,7.351563 -11.44141,9.863281 -4.46875,2.511719 -8.59766,3.765625 -12.39062,3.765625 -2.88672,0 -5.42188,-0.78125 -7.60547,-2.339843 -2.1836,-1.5625 -3.87891,-3.792969 -5.08203,-6.699219 -1.20313,-2.90625 -1.80469,-6.300781 -1.80469,-10.1875 0,-5.191406 1.39844,-10.355469 4.1914,-15.492188 2.79297,-5.136718 6.31641,-9.785156 10.57422,-13.949218 4.25782,-4.167969 8.5625,-7.507809 12.91797,-10.035159 4.35156,-2.52344 7.94531,-3.78125 10.78125,-3.78125 z m 0,0" style="fill:#efefef;fill-opacity:1;fill-rule:nonzero;stroke:#454545;stroke-width:1.5;stroke-linecap:butt;stroke-linejoin:round;stroke-miterlimit:10;stroke-opacity:1" />
        <path d="m 441.16856,21.641437 c 1.73047,0 3.22266,0.41797 4.46094,1.27734 1.23828,0.85156 2.17969,2.05078 2.82031,3.60156 0.64063,1.55079 0.96094,3.30079 0.96094,5.246099 0,3.605468 -1.20313,7.582031 -3.62109,11.929687 -2.41016,4.34375 -5.41016,8.523438 -8.98047,12.53125 -3.57032,4.007813 -7.00782,7.296875 -10.3086,9.875 -3.30078,2.574219 -5.76953,3.863281 -7.42187,3.863281 -1.19922,0 -2.30078,-0.464843 -3.30078,-1.386718 -0.98828,-0.925782 -1.48828,-2 -1.48828,-3.230469 0,-1.960938 0.94921,-4.222656 2.87109,-6.789063 1.91797,-2.570312 4.03906,-4.949218 6.34766,-7.136718 2.32031,-2.1875 3.8125,-3.28125 4.49218,-3.28125 0.86719,0 1.30078,0.402343 1.30078,1.210937 0,0.199219 -0.043,0.429688 -0.12109,0.691406 0.60938,-0.636718 1.39844,-1.496093 2.35938,-2.570312 2.35937,-2.652344 4.55078,-5.609375 6.55859,-8.871094 2.01172,-3.261719 3.01953,-5.875 3.01953,-7.832036 0,-0.66015 -0.11719,-1.1289 -0.33984,-1.40234 -0.21875,-0.27734 -0.5586,-0.41797 -1.01953,-0.41797 -1.91016,0 -4.98829,1.69922 -9.23829,5.089846 -4.26171,3.390625 -8.65234,7.746094 -13.17968,13.0625 -4.53125,5.320313 -8.30078,10.796875 -11.3125,16.4375 -3.01953,5.640625 -4.51953,10.558594 -4.51953,14.761719 0,2.398437 0.33984,4.363281 1.01953,5.898437 0.6914,1.535157 1.67187,2.710938 2.96093,3.527344 1.28907,0.8125 2.8711,1.222656 4.73047,1.222656 4.26172,0 9.16016,-1.699218 14.67188,-5.09375 5.51953,-3.398437 12.19922,-8.546875 20.02734,-15.445312 l 0,4.269531 c -5.33984,5.953125 -10.1875,10.8125 -14.53906,14.578125 -4.35156,3.765625 -8.62891,6.679688 -12.82813,8.734375 -4.20312,2.054688 -8.29296,3.082031 -12.29296,3.082031 -3.48047,0 -6.48047,-0.703125 -9.00782,-2.105468 -2.51953,-1.402344 -4.42968,-3.445313 -5.71093,-6.125 -1.28125,-2.679688 -1.92188,-5.824219 -1.92188,-9.4375 0,-2.824219 0.44141,-5.796875 1.33984,-8.917969 0.89063,-3.121094 2.17188,-6.25 3.84375,-9.386719 1.66797,-3.136719 3.71875,-6.386719 6.14844,-9.742187 2.44141,-3.355469 5.28906,-6.867188 8.5586,-10.535157 3.42968,-3.84375 6.79296,-7.140625 10.08203,-9.890625 3.27734,-2.753907 6.27734,-4.925777 8.98828,-6.515627 2.72265,-1.58984 5.26172,-2.78906 7.64062,-3.57812 2.37891,-0.80078 4.35938,-1.19922 5.94922,-1.19922 z m 0,0" style="fill:#dbdbef;fill-opacity:1;fill-rule:nonzero;stroke:#000045;stroke-width:3;stroke-linecap:butt;stroke-linejoin:round;stroke-miterlimit:10;stroke-opacity:1" />
        <path d="m 489.39122,40.528154 c -1.90235,0 -4.29297,0.792969 -7.17188,2.378907 -2.89062,1.585937 -5.85937,3.960937 -8.92968,7.121093 -0.58985,0.875 -2.91016,3.570313 -6.94922,8.085938 0.27734,-1.75 0.75781,-3.484375 1.46093,-5.203125 -0.49218,0.828125 -1.01171,1.714844 -1.58203,2.652344 -2.16015,3.582031 -3.89843,7.078125 -5.21875,10.484375 -1.3125,3.40625 -1.97265,5.976562 -1.97265,7.714843 0,3.9375 1.80078,5.90625 5.40234,5.90625 2.75,0 6.41016,-1.949218 10.98047,-5.851562 4.57031,-3.898438 8.55859,-8.617188 11.96875,-14.15625 3.41016,-5.539063 5.12109,-10.527344 5.12109,-14.972656 0,-2.773438 -1.04297,-4.160157 -3.10937,-4.160157 z m -0.19141,-16.828127 c 2.46875,0 4.35938,0.73828 5.66016,2.23047 1.30078,1.48828 2.5,4.17969 3.58984,8.066407 -2.37109,0.08203 -4.39844,0.273438 -6.10937,0.582032 1.4375,0.148437 2.71875,0.574218 3.83984,1.277343 1.42969,0.898438 2.5,2.101563 3.1875,3.617188 0.70313,1.511719 1.05078,3.125 1.05078,4.839844 0,2.546875 -0.46875,5.46875 -1.39844,8.765625 -0.92968,3.296875 -2.24218,6.609375 -3.92968,9.941406 -1.69922,3.332031 -3.71094,6.511719 -6.03125,9.535156 -3.16016,4.0625 -6.98047,7.351563 -11.44922,9.863281 -4.46094,2.511719 -8.58985,3.765625 -12.39063,3.765625 -2.8789,0 -5.41797,-0.78125 -7.60156,-2.339843 -2.1875,-1.5625 -3.87891,-3.792969 -5.07812,-6.699219 -1.21094,-2.90625 -1.8086,-6.300781 -1.8086,-10.1875 0,-5.191406 1.39844,-10.355469 4.1875,-15.492188 2.78906,-5.136718 6.32031,-9.785156 10.58203,-13.949218 4.25,-4.167969 8.5586,-7.507809 12.91016,-10.035159 4.35937,-2.52344 7.94922,-3.78125 10.78906,-3.78125 z m 0,0" style="fill:#efefef;fill-opacity:1;fill-rule:nonzero;stroke:#454545;stroke-width:3;stroke-linecap:butt;stroke-linejoin:round;stroke-miterlimit:10;stroke-opacity:1" />
        <path d="m 550.07091,38.653154 c -0.90235,0 -1.83985,0.02344 -2.83204,0.06641 -0.98828,0.04297 -2.17968,0.132812 -3.58984,0.269531 -1.01953,0.09766 -1.62891,0.15625 -1.84766,0.175781 0.008,0.179688 0.0195,0.355469 0.0195,0.523438 0,0.980468 -0.30079,2.085937 -0.89063,3.316406 -0.58984,1.230469 -1.28125,2.371094 -2.07031,3.421875 -0.78906,1.050781 -2.05078,2.738281 -3.78906,5.066406 -1.75,2.328125 -3.25,3.910156 -4.51954,4.738281 5.5,-1.171875 10.54688,-2.332031 15.15625,-3.480468 4.61329,-1.144532 8.34375,-2.273438 11.21094,-3.390625 2.85938,-1.117188 4.94922,-2.246094 6.28906,-3.386719 1.34375,-1.140625 2.01172,-2.257813 2.01172,-3.347656 0,-1.050782 -1.42968,-1.976563 -4.28125,-2.773438 -2.84765,-0.800781 -6.46875,-1.199219 -10.86718,-1.199219 z m -4.41016,-13.035157 c 2.37891,0 4.73828,0.14063 7.07812,0.43359 2.33985,0.27735 4.46875,0.61719 6.37891,1.03907 1.92188,0.41015 3.53125,0.84765 4.83984,1.33984 2.73047,0.89844 4.91016,2.35938 6.52344,4.382814 1.61719,2.023437 2.41797,4.253906 2.41797,6.6875 0,2.273437 -0.39062,4.5 -1.17969,6.675781 -0.80078,2.179687 -2.01172,4.1875 -3.6289,6.03125 -1.63282,1.847656 -3.76953,3.382812 -6.44141,4.613281 -1.46875,0.882813 -4.05859,1.808594 -7.75,2.78125 -3.69141,0.972656 -8.08984,1.824219 -13.17969,2.558594 -5.10156,0.734375 -10.53906,1.1875 -16.32031,1.363281 4.32031,0.628906 8.51953,1.773438 12.60156,3.441406 4.07813,1.660157 7.50782,3.140625 10.30078,4.433594 2.77735,1.289063 5.01954,2.375 6.70704,3.253906 2.3125,1.207032 3.85937,2.105469 4.63281,2.703125 0.76953,0.59375 1.28906,1.386719 1.53906,2.371094 0.25781,0.984375 0.39063,2.445313 0.39063,4.382813 0,2.21875 -0.17188,3.980468 -0.5,5.28125 -0.33204,1.296875 -1.17969,1.949218 -2.5625,1.949218 -0.4375,0 -1.27735,-0.316406 -2.52735,-0.949218 -1.25,-0.628907 -2.91015,-1.519532 -5,-2.667969 -2.08203,-1.148438 -4,-2.183594 -5.74219,-3.113281 -1.75,-0.925782 -4.57812,-2.5 -8.48046,-4.722657 l -16.07813,-7.605468 c -4.01953,5.671875 -6.28125,9.425781 -6.76953,11.25 -0.42969,1.578125 -1.35938,2.898437 -2.8125,3.964843 -1.4375,1.0625 -2.54688,1.59375 -3.32813,1.59375 -2.17968,0 -3.28125,-0.910156 -3.28125,-2.730468 0,-0.851563 0.94922,-2.917969 2.85157,-6.203125 1.89843,-3.28125 4.42968,-6.789063 7.58984,-10.519532 -1.42969,-0.433593 -2.44922,-0.832031 -3.07031,-1.203125 -0.6211,-0.367187 -0.87891,-1.039062 -0.78125,-2.007812 0.10156,-0.972656 0.67969,-2.25 1.74219,-3.839844 0.88671,-1.339844 1.58984,-2.261719 2.07031,-2.765625 0.48828,-0.507812 1.0664,-0.910156 1.75,-1.214844 0.67969,-0.304687 1.32812,-0.5 1.94922,-0.585937 0.61718,-0.08984 2.34765,-0.3125 5.19922,-0.664063 2.26953,-3.0625 4.82031,-6.492187 7.64843,-10.285156 2.83203,-3.792969 4.99219,-6.246094 6.47266,-7.363281 -4.0625,0.636719 -6.97266,1.152344 -8.72266,1.546875 -1.84765,0.363281 -3.51953,0.6875 -5,0.96875 -1.23828,0.238281 -2.07812,0.417969 -2.50781,0.539062 0.37891,0.04687 1.00781,0.07031 1.89063,0.07031 1.02734,0 1.98828,0.0625 2.8789,0.179687 0.89063,0.121094 1.33985,0.589844 1.33985,1.398438 0,0.894531 -0.53125,1.375 -1.58985,1.4375 -1.05078,0.06641 -3.32031,0.175781 -6.80859,0.328125 -1.92188,0.0625 -3.5625,0.125 -4.90235,0.191406 -1.34765,0.06641 -2.30078,0.09766 -2.84765,0.09766 -0.99219,0 -1.76172,-0.308593 -2.33985,-0.925781 -0.57031,-0.613281 -0.85156,-1.398437 -0.85156,-2.355469 0,-0.660156 0.30078,-1.734375 0.91797,-3.226562 0.62109,-1.492188 1.49219,-3 2.63281,-4.523438 1.12891,-1.523437 2.5,-2.75 4.10938,-3.679687 1.50781,-0.914061 3.9414,-1.863281 7.30078,-2.843751 3.36719,-0.99219 7.07812,-1.78125 11.16016,-2.38281 4.07031,-0.60938 8.09765,-0.91016 12.08984,-0.91016 z m 0,0" style="fill:#efdbdb;fill-opacity:1;fill-rule:nonzero;stroke:#450000;stroke-width:3;stroke-linecap:butt;stroke-linejoin:round;stroke-miterlimit:10;stroke-opacity:1" />
    </g>
</svg>
